Coordinates
version=1
nRows=7
nColumns=40
inDegrees=yes

Units are S.I. units (second, meters, Newtons, ...)
Angles are in degrees.

endheader
time	pelvis_tilt	pelvis_list	pelvis_rotation	pelvis_tx	pelvis_ty	pelvis_tz	hip_flexion_r	hip_adduction_r	hip_rotation_r	knee_angle_r	knee_angle_r_beta	ankle_angle_r	subtalar_angle_r	mtp_angle_r	hip_flexion_l	hip_adduction_l	hip_rotation_l	knee_angle_l	knee_angle_l_beta	ankle_angle_l	subtalar_angle_l	mtp_angle_l	lumbar_extension	lumbar_bending	lumbar_rotation	arm_flex_r	arm_add_r	arm_rot_r	elbow_flex_r	pro_sup_r	wrist_flex_r	wrist_dev_r	arm_flex_l	arm_add_l	arm_rot_l	elbow_flex_l	pro_sup_l	wrist_flex_l	wrist_dev_l
     45.75792857	     -5.68999644	     -5.29183590	      9.50659254	      1.04952911	      0.92189189	      0.46226751	      3.93963876	      3.10498931	    -18.19503646	     11.64689962	     11.64689962	     14.89852997	     -0.52448180	     -5.76772399	     31.45315530	     -6.14411620	     -0.10331577	     20.34309358	     20.34309358	      4.44632054	     -7.77908859	      5.91837836	     -8.44081201	      5.20025887	      3.71592152	     42.56183980	    -17.47787445	     -8.43756753	    101.61628023	     44.28072829	      0.00000000	      0.00000000	     -8.18017917	     -7.82251170	     -0.59875070	     26.81099037	     45.28546843	      0.00000000	      0.00000000
     45.77085714	     -5.55226295	     -5.29109685	      9.35279648	      1.05154128	      0.92122280	      0.46025957	      3.28219850	      3.05603763	    -18.01111018	     11.67767780	     11.67767780	     15.23322253	     -0.41041532	     -5.72940247	     30.70961705	     -6.08923919	     -0.21116206	     20.68693604	     20.68693604	      4.02379615	     -7.98224282	      5.74007652	     -8.25688593	      5.14872973	      3.70463227	     42.04273321	    -17.02971661	     -8.36877880	    101.72306545	     44.27681926	      0.00000000	      0.00000000	     -8.16554919	     -7.87397800	     -0.57033499	     26.88193892	     45.28265389	      0.00000000	      0.00000000
     45.78378571	     -5.40935276	     -5.26167823	      9.23333360	      1.05356487	      0.92075310	      0.45810510	      2.61539105	      2.96408185	    -17.86305899	     11.71513132	     11.71513132	     15.59461313	     -0.27994542	     -5.54511931	     29.95221745	     -5.98854821	     -0.22133574	     20.93285068	     20.93285068	      3.59985986	     -8.24388164	      5.27852839	     -8.10580569	      5.03298844	      3.62474571	     41.39100453	    -16.57269476	     -8.44852108	    101.81937979	     44.28035402	      0.00000000	      0.00000000	     -8.10964692	     -7.95251457	     -0.53615052	     27.04015596	     45.28055230	      0.00000000	      0.00000000
     45.79671429	     -5.25386170	     -5.20001953	      9.08759699	      1.05552641	      0.92053497	      0.45577248	      2.02583521	      2.78775134	    -17.68870458	     11.91508934	     11.91508934	     15.80946923	     -0.23501106	     -5.45297979	     29.26738792	     -5.87058926	     -0.19807993	     21.27577155	     21.27577155	      3.49814808	     -8.48474088	      4.95047812	     -7.98680857	      4.94336353	      3.58370061	     40.52737527	    -16.16654360	     -8.41345979	    101.67764478	     44.28362743	      0.00000000	      0.00000000	     -7.88357473	     -8.00512760	     -0.52226304	     27.19053124	     45.28346453	      0.00000000	      0.00000000
     45.80964286	     -5.09490870	     -5.11236425	      8.99502495	      1.05735470	      0.92057916	      0.45322236	      1.47685356	      2.55537299	    -17.54240584	     12.19223345	     12.19223345	     15.98439676	     -0.25529626	     -5.36683749	     28.63635257	     -5.70337294	     -0.11031893	     21.61777186	     21.61777186	      3.57704440	     -8.72029025	      4.60582061	     -7.91027206	      4.80882506	      3.46479964	     39.54331757	    -15.80776137	     -8.39345959	    101.41553204	     44.29007942	      0.00000000	      0.00000000	     -7.54398588	     -8.06061000	     -0.51224174	     27.35319339	     45.28873835	      0.00000000	      0.00000000
     45.82257143	     -4.90198540	     -4.98347170	      8.93596062	      1.05902357	      0.92096781	      0.45045414	      0.99305500	      2.23215269	    -17.41623430	     12.65269243	     12.65269243	     16.09193837	     -0.33567497	     -5.21304060	     28.02161934	     -5.48363308	     -0.02576514	     21.95421657	     21.95421657	      3.72697211	     -9.03619209	      4.16939740	     -7.87229031	      4.67421327	      3.36408870	     38.35016420	    -15.47307495	     -8.46533033	    100.93815112	     44.30649001	      0.00000000	      0.00000000	     -7.13013833	     -8.15664651	     -0.50537343	     27.52243095	     45.29638050	      0.00000000	      0.00000000
     45.83550000	     -4.80415607	     -4.82380179	      8.83908165	      1.06052490	      0.92151492	      0.44744818	      0.92699751	      1.71874501	    -17.35157487	     13.80488278	     13.80488278	     17.03316397	     -0.16690352	     -2.96407092	     27.28779205	     -5.14101459	      0.30265690	     21.75889945	     21.75889945	      2.77159223	    -10.23844990	      1.32546520	     -7.74318165	      4.47100520	      3.53782837	     37.02740811	    -14.96463959	     -9.85790517	     99.73387152	     44.44692788	      0.00000000	      0.00000000	     -6.30078692	     -8.23427060	     -0.14532250	     27.31348183	     45.28934413	      0.00000000	      0.00000000
